<svg width="350" height="350" fill="none" xmlns="http://www.w3.org/2000/svg"><path d="M33.583 294.844l-3.076-12.121a157.779 157.779 0 00-16.71-5.991l-.39 5.633-1.573-6.206C4.79 274.148 0 273.263 0 273.263s6.47 24.59 20.045 43.39l15.816 2.776-12.287 1.771a63.72 63.72 0 005.494 5.819c19.745 18.314 41.738 26.717 49.122 18.768 7.384-7.949-2.637-29.24-22.383-47.552-6.12-5.678-13.81-10.234-21.508-13.82l-.716 10.429z" fill="#F2F2F2"/><path d="M62.833 281.679l3.638-11.965a157.56 157.56 0 00-11.206-13.76l-3.246 4.622 1.862-6.126c-4.989-5.358-8.632-8.59-8.632-8.59s-7.18 24.393-5.286 47.498l12.103 10.545-11.436-4.831c.4 2.64.966 5.252 1.694 7.821 7.43 25.877 21.91 44.43 32.342 41.439 10.433-2.991 12.868-26.393 5.439-52.269-2.303-8.022-6.53-15.894-11.263-22.94l-6.009 8.556z" fill="#F2F2F2"/><path d="M243.681 82.915h-1.919V30.397a30.391 30.391 0 00-18.778-28.083A30.443 30.443 0 00211.343 0H99.99a30.431 30.431 0 00-21.51 8.903 30.386 30.386 0 00-8.91 21.494V318.52a30.378 30.378 0 008.91 21.495 30.438 30.438 0 0021.51 8.903h111.353a30.428 30.428 0 0021.509-8.904 30.384 30.384 0 008.91-21.494V120.299h1.918l.001-37.384z" fill="#E6E6E6"/><path d="M212.567 7.905h-14.534a10.779 10.779 0 01-4.919 13.592 10.8 10.8 0 01-5.075 1.266h-63.792a10.8 10.8 0 01-8.958-4.769 10.774 10.774 0 01-1.035-10.089h-13.576a22.725 22.725 0 00-16.063 6.65 22.692 22.692 0 00-6.654 16.05V318.31a22.692 22.692 0 006.654 16.052 22.726 22.726 0 0016.063 6.649h111.889a22.725 22.725 0 0016.063-6.649 22.69 22.69 0 006.654-16.052V30.605c0-6.02-2.393-11.794-6.654-16.051a22.724 22.724 0 00-16.063-6.649z" fill="#fff"/><path d="M142.368 122.512a11.453 11.453 0 015.734-9.92 11.47 11.47 0 00-15.66 4.192 11.45 11.45 0 004.197 15.648 11.47 11.47 0 0011.463-.001 11.454 11.454 0 01-5.734-9.919z" fill="#CCC"/><path d="M156.779 122.512a11.452 11.452 0 015.734-9.92 11.477 11.477 0 00-11.464-.001 11.46 11.46 0 00-5.733 9.921 11.45 11.45 0 005.733 9.92 11.476 11.476 0 0011.464-.001 11.44 11.44 0 01-5.734-9.919z" fill="#CCC"/><path d="M170.862 133.966c6.33 0 11.463-5.128 11.463-11.454 0-6.326-5.133-11.455-11.463-11.455-6.331 0-11.464 5.129-11.464 11.455 0 6.326 5.133 11.454 11.464 11.454z" fill="#3056D3"/><path d="M190.017 158.289h-66.809a2.407 2.407 0 01-1.696-.703 2.394 2.394 0 01-.703-1.694v-66.76a2.404 2.404 0 012.399-2.397h66.809a2.404 2.404 0 012.399 2.397v66.76c0 .635-.253 1.245-.703 1.694-.45.449-1.06.702-1.696.703zm-66.809-70.595a1.442 1.442 0 00-1.44 1.438v66.76a1.442 1.442 0 001.44 1.438h66.809a1.443 1.443 0 001.44-1.438v-66.76a1.442 1.442 0 00-1.44-1.438h-66.809zM204.934 209.464H102.469v.959h102.465v-.959z" fill="#CCC"/><path d="M105.705 203.477a3.234 3.234 0 100-6.467 3.234 3.234 0 100 6.467z" fill="#3056D3"/><path d="M204.934 241.797H102.469v.96h102.465v-.96z" fill="#CCC"/><path d="M105.705 235.811a3.234 3.234 0 100-6.467 3.234 3.234 0 100 6.467zM203.062 278.617H170.68a2.11 2.11 0 01-2.11-2.108v-11.341a2.11 2.11 0 012.11-2.108h32.382a2.11 2.11 0 012.11 2.108v11.341a2.11 2.11 0 01-2.11 2.108zM116.263 203.477a3.234 3.234 0 100-6.467 3.234 3.234 0 100 6.467zM126.818 203.477a3.234 3.234 0 100-6.467 3.234 3.234 0 100 6.467zM116.263 235.811a3.234 3.234 0 100-6.467 3.234 3.234 0 100 6.467zM126.818 235.811a3.234 3.234 0 100-6.467 3.234 3.234 0 100 6.467z" fill="#3056D3"/><path d="M264.742 229.309c.23.105.451.228.662.369l21.028-8.969.751-5.535 8.402-.051-.496 12.695-27.755 7.335a5.194 5.194 0 01-.21.566 4.81 4.81 0 01-1.855 2.064 4.807 4.807 0 01-5.311-.22 4.798 4.798 0 01-1.85-4.979 4.792 4.792 0 013.881-3.629 4.793 4.793 0 012.753.354zM298.642 344.352h-5.748l-2.734-22.154h8.483l-.001 22.154z" fill="#FFB8B8"/><path d="M288.788 342.711h11.085v6.974h-18.064a6.97 6.97 0 012.044-4.931 6.982 6.982 0 014.935-2.043z" fill="#1C2434"/><path d="M320.995 342.729l-5.721.563-4.895-21.779 8.443-.831 2.173 22.047z" fill="#FFB8B8"/><path d="M311.028 342.061l11.031-1.086.685 6.941-17.978 1.769a6.969 6.969 0 013.656-6.834 6.982 6.982 0 012.606-.79z" fill="#1C2434"/><path d="M300.242 191.677c6.359 0 11.515-5.152 11.515-11.507 0-6.355-5.156-11.507-11.515-11.507-6.36 0-11.515 5.152-11.515 11.507 0 6.355 5.155 11.507 11.515 11.507z" fill="#FFB8B8"/><path d="M291.607 339.872a2.098 2.098 0 01-2.07-1.733c-2.975-16.503-12.699-70.463-12.932-71.958a.6.6 0 01-.007-.104v-4.023a.69.69 0 01.131-.409l1.284-1.798a.687.687 0 01.536-.293c7.325-.343 31.311-1.348 32.47.098 1.164 1.454.753 5.86.659 6.728l.004.091 10.777 68.866a2.112 2.112 0 01-1.742 2.405l-6.731 1.108a2.117 2.117 0 01-2.356-1.449c-2.082-6.647-9.062-29.008-11.481-37.66a.234.234 0 00-.46.065c.121 8.248.413 29.292.514 36.56l.011.782a2.12 2.12 0 01-1.919 2.126l-6.491.589a2.18 2.18 0 01-.197.009z" fill="#1C2434"/><path d="M292.933 196.201c-2.009 1.194-3.212 3.387-3.902 5.62a53.27 53.27 0 00-2.29 12.724l-.729 12.93-9.028 34.28c7.825 6.615 12.338 5.112 22.871-.3 10.532-5.411 11.736 1.805 11.736 1.805l2.106-29.168 3.009-31.873a14.136 14.136 0 00-2.279-2.189 23.286 23.286 0 00-19.899-4.215l-1.595.386z" fill="#3056D3"/><path d="M290.001 236.232c.243.092.478.202.703.33l20.793-10.399.345-5.634 8.577-.591.459 12.843-27.786 9.182a4.923 4.923 0 01-7.029 3.263 4.92 4.92 0 01-2.654-4.92 4.913 4.913 0 013.666-4.222 4.922 4.922 0 012.926.148z" fill="#FFB8B8"/><path d="M316.556 202.365c5.116 1.805 6.017 21.351 6.017 21.351-6.019-3.307-13.241 2.105-13.241 2.105s-1.505-5.112-3.31-11.727a11.497 11.497 0 01-.19-5.722 11.494 11.494 0 012.597-5.103s3.011-2.709 8.127-.904z" fill="#3056D3"/><path d="M310.566 183.213c-1.434-1.147-3.392.938-3.392.938l-1.148-10.323s-7.173.859-11.765-.286c-4.591-1.146-5.308 4.158-5.308 4.158a36.693 36.693 0 01-.143-6.452c.286-2.581 4.017-5.161 10.617-6.882 6.599-1.72 10.043 5.735 10.043 5.735 4.591 2.294 2.531 14.259 1.096 13.112z" fill="#1C2434"/></svg>