<svg width="22" height="22" fill="none" xmlns="http://www.w3.org/2000/svg"><g opacity=".5"><path d="M11 9.522c2.544 0 4.607-1.994 4.607-4.469 0-2.475-2.063-4.469-4.606-4.469-2.544 0-4.606 1.994-4.606 4.47 0 2.474 2.062 4.468 4.606 4.468zm0-7.356c1.685 0 3.06 1.306 3.06 2.921 0 1.616-1.375 2.922-3.06 2.922-1.684 0-3.059-1.306-3.059-2.922 0-1.615 1.375-2.921 3.06-2.921zM13.235 11.069H8.766c-3.678 0-6.668 3.025-6.668 6.703v2.853a.8.8 0 00.79.79c.447 0 .79-.343.79-.79v-2.853c0-2.819 2.304-5.156 5.157-5.156h4.434c2.82 0 5.157 2.303 5.157 5.156v2.853a.8.8 0 00.79.79c.447 0 .791-.343.791-.79v-2.853c-.103-3.678-3.094-6.703-6.772-6.703z"/></g></svg>