<?xml version="1.0" encoding="UTF-8" standalone="no"?>
<svg width="270.933mm" height="61.6479mm"
 xmlns="http://www.w3.org/2000/svg" xmlns:xlink="http://www.w3.org/1999/xlink"  version="1.2" baseProfile="tiny">
<desc>Created by EvoPdf</desc>
<defs>
</defs>
<g fill="none" stroke="black" stroke-width="1" fill-rule="evenodd" stroke-linecap="square" stroke-linejoin="bevel" >

<g fill="#000000" fill-opacity="1" stroke="#000000" stroke-opacity="1" stroke-width="1" stroke-linecap="square" stroke-linejoin="miter" stroke-miterlimit="2" transform="matrix(1,0,0,1,0,0)"
>
</g>

<g fill="#000000" fill-opacity="1" stroke="#000000" stroke-opacity="1" stroke-width="1" stroke-linecap="square" stroke-linejoin="miter" stroke-miterlimit="2" transform="matrix(1,0,0,1,0,0)"
>
</g>

<g fill="#000000" fill-opacity="1" stroke="#000000" stroke-opacity="1" stroke-width="1" stroke-linecap="square" stroke-linejoin="miter" stroke-miterlimit="2" transform="matrix(1,0,0,1,0,0)"
>
</g>

<g fill="#000000" fill-opacity="1" stroke="#000000" stroke-opacity="1" stroke-width="1" stroke-linecap="square" stroke-linejoin="miter" stroke-miterlimit="2" transform="matrix(1,0,0,1,0,0)"
>
</g>

<g fill="#000000" fill-opacity="1" stroke="#000000" stroke-opacity="1" stroke-width="1" stroke-linecap="square" stroke-linejoin="miter" stroke-miterlimit="2" transform="matrix(1,0,0,1,8,8)"
>
</g>

<g fill="#ffffff" fill-opacity="1" stroke="none" transform="matrix(1,0,0,1,8,8)"
>
<path vector-effect="none" fill-rule="evenodd" d="M204.456,40.4571 L218.839,21.0551 L217.99,15.2792 L206.815,25.6653 L205.3,20.7385 L205.206,3.99144 L200.793,3.0304 L196.69,24.3199 L191.172,18.7279 L189.465,3.59872 L185.471,5.45441 L187.8,22.2222 L186.04,27.1684 L175.807,9.93329 L167.527,10.3343 L173.862,30.3917 L178.318,38.9927 L161.773,44.2377 L162.105,48.2962 L178.868,49.9749 L188.04,54.6321 L193.042,84.123 L185.501,114.612 L168.149,132.586 L132.396,137.547 L129.141,139.059 L118.597,144.266 L128.611,126.539 L138.805,89.3209 L119.428,30.2395 L96.7012,9.02185 L65.3642,10.2055 L42.3705,50.0951 L38.4608,75.9783 L32.3323,78.2558 L21.3849,84.4092 L23.5913,99.1373 L39.2328,109.902 L50.3478,127.829 L54.5749,133.243 L57.2899,135.831 L44.4369,136.034 L49.2723,143.716 L128.791,183.041 L132.619,156.46 L178.663,143.179 L203.418,113.557 L207.58,81.0171 L203.424,52.9906 L204.456,40.457 L204.456,40.4571"/>
</g>

<g fill="#000000" fill-opacity="1" stroke="#000000" stroke-opacity="1" stroke-width="1" stroke-linecap="square" stroke-linejoin="miter" stroke-miterlimit="2" transform="matrix(1,0,0,1,8,8)"
>
</g>

<g fill="#020202" fill-opacity="1" stroke="none" transform="matrix(1,0,0,1,8,8)"
>
<path vector-effect="none" fill-rule="nonzero" d="M227.378,78.1948 C229.212,67.3755 227.155,57.8872 221.298,49.2024 C220.7,48.3158 220.182,47.1183 218.781,47.8607 C217.302,48.6448 217.764,49.8045 218.443,50.8622 C222.686,57.4666 223.925,65.0005 225.258,72.5159 C225.581,74.3357 225.712,76.2646 227.378,78.1948 "/>
</g>

<g fill="#000000" fill-opacity="1" stroke="#000000" stroke-opacity="1" stroke-width="1" stroke-linecap="square" stroke-linejoin="miter" stroke-miterlimit="2" transform="matrix(1,0,0,1,8,8)"
>
</g>

<g fill="#050505" fill-opacity="1" stroke="none" transform="matrix(1,0,0,1,8,8)"
>
<path vector-effect="none" fill-rule="nonzero" d="M238.959,80.9995 C238.955,78.2588 238.951,75.5181 238.947,72.7774 C238.651,70.9083 238.534,68.9822 237.361,67.369 C236.924,66.7677 236.399,66.2219 235.533,66.7385 C234.954,67.0837 234.898,67.6061 235.129,68.1497 C237.449,73.5931 236.315,79.1879 235.736,84.7093 C235.229,89.5492 234.094,94.3217 233.861,99.8807 C237.503,93.6362 238.253,87.3237 238.959,80.9995 "/>
</g>

<g fill="#000000" fill-opacity="1" stroke="#000000" stroke-opacity="1" stroke-width="1" stroke-linecap="square" stroke-linejoin="miter" stroke-miterlimit="2" transform="matrix(1,0,0,1,8,8)"
>
</g>

<g fill="#f05a29" fill-opacity="1" stroke="none" transform="matrix(1,0,0,1,8,8)"
>
<path vector-effect="none" fill-rule="nonzero" d="M187.614,5.99559 C187.604,8.8401 188.278,11.0535 189.058,13.2479 C189.206,10.8888 189.206,8.55615 187.614,5.99559 M110.551,167.302 C116.087,169.64 120.995,173.29 126.773,175.357 C127.517,170.212 128.176,165.372 129.041,160.551 C129.825,156.183 132.363,154.345 136.307,153.28 C146.383,150.559 156.648,148.641 166.596,145.309 C175.482,142.333 182.82,137.86 187.974,129.911 C189.94,126.88 192.532,124.258 194.733,121.37 C197.483,117.76 200.072,114.042 201.818,109.806 C204.678,102.868 204.796,95.4164 205.387,88.1633 C206.381,75.9653 203.729,64.1709 199.492,52.7328 C198.89,51.1093 199.08,49.5374 199.256,47.7803 C199.607,44.28 201.847,41.6491 202.613,38.4093 C203.146,36.1541 204.565,34.4079 206.26,32.7851 C209.8,29.3948 213.21,25.8577 215.938,21.7531 C216.65,20.6805 217.497,19.4993 216.532,18.063 C215.597,18.382 215.246,19.1641 214.761,19.7792 C212.683,22.4188 210.821,25.23 208.452,27.638 C207.363,28.7443 206.112,29.455 204.54,28.897 C202.862,28.3013 202.72,26.8537 202.698,25.318 C202.642,21.2931 203.193,17.3484 204.117,13.4446 C204.627,11.2853 204.501,9.11292 204.211,6.94815 C204.077,5.94993 203.813,4.67853 202.646,4.69227 C201.426,4.70673 201.325,6.04284 201.252,7.00749 C201.067,9.45159 201.057,11.9095 200.852,14.3514 C200.602,17.3313 200.412,20.3371 199.839,23.2619 C199.426,25.3696 198.155,27.1726 195.735,27.4579 C193.415,27.7311 192.372,26.0436 191.445,24.3062 C191.174,23.7991 191.256,23.0347 190.437,22.8863 C190.315,24.7194 190.263,26.5229 190.051,28.3076 C189.905,29.5371 189.261,30.5763 188.01,30.9826 C186.627,31.4316 185.453,30.8496 184.622,29.7983 C183.67,28.5936 182.763,27.318 182.065,25.9562 C180.205,22.3273 178.448,18.6449 176.695,14.9625 C176.179,13.8797 175.594,12.8821 174.673,12.0968 C173.528,11.1204 172.247,11.4331 171.066,11.8606 C169.71,12.3517 170.349,13.5054 170.462,14.4447 C170.994,18.8586 172.652,22.8168 175.139,26.4961 C176.814,28.9738 178.439,31.5122 179.793,34.1725 C182.765,40.0129 180.236,44.0751 173.764,44.1698 C171.043,44.2095 168.289,43.8716 165.616,44.6468 C164.716,44.9079 163.377,44.8725 163.448,46.2345 C163.504,47.3321 164.148,48.2488 165.282,48.7381 C167.147,49.5427 169.035,49.2967 170.911,48.9208 C175.054,48.0902 179.204,48.0022 183.388,48.5489 C187.32,49.0626 190.62,51.8162 191.693,54.6789 C194.499,62.1676 196.305,70.0189 196.374,78.2379 C196.426,84.4144 194.862,90.2793 194.225,96.3068 C192.658,111.111 186.261,123.183 173.292,131.124 C164.413,136.562 154.504,138.839 144.179,138.949 C139.271,139.001 134.353,138.604 129.233,139.469 C132.664,135.372 136.604,133.457 141.565,133.82 C143.103,133.932 144.665,133.878 146.205,133.759 C155.099,133.07 163.617,131.111 171.223,126.179 C175.163,123.624 178.085,119.988 181.332,116.692 C183.237,114.758 184.404,112.465 185.281,109.948 C187.563,103.399 188.343,96.5318 189.776,89.7992 C192.036,79.1876 190.109,69.0309 187.414,58.9293 C185.964,53.4973 183.886,52.3611 178.356,52.2779 C175.779,52.2392 173.286,52.7101 170.779,53.1646 C168.127,53.6454 165.528,53.6036 163.047,52.3737 C160.761,51.2396 158.691,47.8613 158.971,45.4464 C159.3,42.6142 161.318,41.3368 163.794,40.5086 C166.985,39.4417 170.292,39.8751 173.549,39.6753 C176.349,39.5034 177.01,38.5964 175.694,36.1013 C174.385,33.6191 172.872,31.2317 171.297,28.9042 C168.016,24.0541 166.034,18.7842 165.774,12.9143 C165.653,10.1763 167.038,8.47516 169.582,7.62904 C174.398,6.02734 178.097,7.70076 180.477,12.6265 C182.113,16.0103 183.559,19.4911 185.838,23.002 C186.101,21.2281 185.913,19.9221 185.634,18.6083 C184.841,14.8811 184.01,11.16 183.319,7.41369 C182.825,4.72999 184.42,1.83138 186.567,1.16109 C188.808,0.46127 190.45,1.59399 191.769,4.78561 C193.181,8.20137 193.41,11.839 193.646,15.4547 C193.867,18.8219 194.3,20.5016 195.69,22.0347 C196.489,17.532 196.849,13.0215 196.797,8.46754 C196.755,4.69316 197.814,1.49614 201.775,0.0429688 L203.415,0.0429688 C206.815,1.411 208.391,3.95978 208.657,7.57818 C208.86,10.332 208.574,12.9974 208.096,15.6873 C207.748,17.641 207.117,19.5903 207.314,22.0554 C209.527,19.3626 211.321,16.9813 213.334,14.8023 C214.624,13.406 216.427,12.8451 218.325,13.4753 C220.222,14.1048 220.733,15.7461 221.021,17.5399 C221.382,19.7961 220.893,21.791 219.775,23.7848 C217.79,27.3257 214.966,30.2118 212.157,32.9811 C207.574,37.4983 206.677,43.153 206.099,49.0141 C205.69,53.1509 206.786,57.1141 207.931,61.03 C210.607,70.1816 211.472,79.53 211.151,89.0193 C211.037,92.3775 210.093,95.6174 209.906,98.9923 C209.504,106.255 207.315,112.961 203.239,119.133 C199.419,124.917 194.647,129.913 190.525,135.436 C185.655,141.961 179.119,146.201 171.487,148.948 C160.337,152.96 148.813,155.354 137.141,157.152 C135.609,157.388 134.529,157.655 134.683,159.727 C134.823,161.588 134.398,163.517 134.054,165.385 C133.091,170.615 133.512,176.096 131.201,181.08 C129.764,181.246 129.42,179.516 128.183,179.337 C124.063,177.292 120.259,174.713 116.352,172.307 C115.422,171.633 114.367,171.166 113.412,170.534 C112.441,169.471 110.283,169.46 110.551,167.302 "/>
</g>

<g fill="#000000" fill-opacity="1" stroke="#000000" stroke-opacity="1" stroke-width="1" stroke-linecap="square" stroke-linejoin="miter" stroke-miterlimit="2" transform="matrix(1,0,0,1,8,8)"
>
</g>

<g fill="#f05a29" fill-opacity="1" stroke="none" transform="matrix(1,0,0,1,8,8)"
>
<path vector-effect="none" fill-rule="nonzero" d="M24.6353,93.4035 C27.0832,100.445 31.998,104.562 39.516,105.052 C42.5293,105.249 43.7846,106.574 44.501,109.354 C46.0942,115.535 48.4937,121.369 52.4792,126.507 C57.5036,132.986 64.0382,137.25 71.6758,139.855 C83.4982,143.887 95.5669,145.319 107.912,142.511 C113.008,141.351 116.922,138.477 120.118,134.363 C131.312,119.956 135.161,103.41 134.653,85.558 C134.636,84.943 134.37,84.335 134.22,83.7239 C133.832,82.7973 133.519,81.8453 133.234,80.8835 C133.186,80.4792 133.131,80.0793 133.071,79.6874 C132.671,77.0714 132.247,74.494 131.46,71.9586 C131.115,70.8462 130.723,69.7488 130.383,68.635 C130.317,68.4212 130.255,68.2063 130.192,67.9917 C130.189,67.9813 130.182,67.9568 130.174,67.927 C130.146,67.7999 130.064,67.4533 130.048,67.3744 C129.968,66.9972 129.905,66.618 129.854,66.237 C130.028,66.1755 130.197,66.0779 130.358,65.9231 C128.788,60.8221 126.904,55.8817 123.385,51.7236 C123.01,51.2808 122.888,50.5603 122.804,49.9474 C120.966,36.6008 114.304,26.0042 104.057,17.5386 C94.7043,9.81131 84.107,8.0341 72.5702,11.542 C69.8005,12.3842 67.4407,14.0349 65.6937,16.2842 C56.1098,28.6223 47.8534,41.7045 43.508,56.8964 C41.6112,63.5281 41.6746,70.3643 41.5205,77.1693 C41.4069,82.1789 40.0383,83.3444 35.3445,81.7868 C32.0869,80.7059 29.0987,80.2648 26.6515,83.2082 C24.1543,86.212 23.3325,89.6558 24.6354,93.4034 L24.6353,93.4035 M21.1088,80.6584 C23.7941,76.8063 27.5093,74.1052 32.3831,74.8685 C35.406,75.342 35.4754,74.0384 35.4901,71.9763 C35.5294,66.4218 35.9674,60.9201 37.3977,55.517 C40.0031,45.6731 44.6225,36.7363 49.8517,28.0987 C52.6714,23.4411 55.8204,18.9886 59.0369,14.5779 C64.4676,7.131 71.9507,3.71792 80.8491,3.60594 C91.3244,3.47427 100.849,6.22107 109.003,13.4397 C117.364,20.8405 123.084,29.816 126.615,40.1925 C128.246,44.9832 130.529,49.458 132.647,53.9669 C138.144,65.6769 140.889,77.8903 141.237,87.7563 C140.873,106.78 137.061,120.013 128.492,133.475 C125.921,137.513 123.273,141.938 119.07,144.262 C110.738,148.869 101.419,150.677 91.9777,150.414 C83.4265,150.176 74.9666,148.593 67.2017,144.598 C59.9877,140.886 52.937,137.009 47.8859,130.298 C44.0511,125.204 41.4703,119.558 39.5942,113.557 C39.03,111.753 38.5073,110.57 36.2669,110.5 C33.8941,110.426 31.7287,109.263 29.6198,108.177 C21.3988,103.944 13.7772,91.176 21.1088,80.6584 "/>
</g>

<g fill="#000000" fill-opacity="1" stroke="#000000" stroke-opacity="1" stroke-width="1" stroke-linecap="square" stroke-linejoin="miter" stroke-miterlimit="2" transform="matrix(1,0,0,1,8,8)"
>
</g>

<g fill="#010101" fill-opacity="1" stroke="none" transform="matrix(1,0,0,1,8,8)"
>
<path vector-effect="none" fill-rule="nonzero" d="M130.358,65.9235 C134.875,69.8021 136.171,75.1712 137.06,80.6673 C137.372,82.5923 136.318,83.7682 134.218,83.7232 C132.997,83.209 132.583,82.2564 132.363,80.9773 C131.796,77.6801 130.894,74.4799 129.133,71.5617 C128.063,69.7879 127.284,69.8929 126.46,71.6925 C125.189,74.4657 125.121,77.479 124.667,80.4156 C124.488,81.5773 124.324,83.2179 123.192,83.3179 C121.851,83.4366 121.269,81.8434 120.967,80.6229 C119.968,76.5838 120.697,72.7285 122.534,69.0714 C124.264,65.6282 126.632,64.7177 130.358,65.9235 "/>
</g>

<g fill="#000000" fill-opacity="1" stroke="#000000" stroke-opacity="1" stroke-width="1" stroke-linecap="square" stroke-linejoin="miter" stroke-miterlimit="2" transform="matrix(1,0,0,1,8,8)"
>
</g>

<g fill="#010101" fill-opacity="1" stroke="none" transform="matrix(1,0,0,1,8,8)"
>
<path vector-effect="none" fill-rule="nonzero" d="M83.0407,85.5366 C82.4516,83.6832 82.5478,81.7714 82.5403,79.3026 C82.5931,76.2205 82.8611,72.5988 84.4234,69.2324 C85.5279,66.8523 87.0321,64.6802 89.9365,64.544 C92.9293,64.4036 94.831,66.3778 96.112,68.7801 C98.2914,72.8669 98.8593,77.3793 99.0769,81.9327 C99.1502,83.4642 98.8796,85.1037 96.9872,85.1658 C94.8026,85.2373 94.7573,83.4485 94.8036,81.845 C94.909,78.1921 93.4797,74.9446 92.1225,71.6841 C91.7804,70.8623 91.2994,69.7607 90.3897,69.7712 C89.2245,69.7848 89.0661,71.138 88.7363,72.004 C87.9573,74.0496 87.7165,76.2189 87.6232,78.4041 C87.5189,80.8517 87.3816,83.3016 86.6031,85.6537 C86.2893,86.6011 85.9395,87.7839 84.774,87.7266 C83.6539,87.6713 83.3462,86.4976 83.0407,85.5366 "/>
</g>

<g fill="#000000" fill-opacity="1" stroke="#000000" stroke-opacity="1" stroke-width="1" stroke-linecap="square" stroke-linejoin="miter" stroke-miterlimit="2" transform="matrix(1,0,0,1,8,8)"
>
</g>

<g fill="#010101" fill-opacity="1" stroke="none" transform="matrix(1,0,0,1,8,8)"
>
<path vector-effect="none" fill-rule="nonzero" d="M67.9434,83.7381 C68.2272,82.2685 68.4793,80.2691 70.4037,80.3267 C72.28,80.3828 71.809,82.4161 71.9509,83.6224 C72.7393,90.313 75.7075,95.6194 81.4606,99.2901 C82.6004,100.017 83.7171,100.81 84.3735,102.346 C83.1767,103.112 81.9982,103.256 80.6818,102.955 C73.2768,101.261 66.5132,91.1416 67.9434,83.7381 "/>
</g>

<g fill="#000000" fill-opacity="1" stroke="#000000" stroke-opacity="1" stroke-width="1" stroke-linecap="square" stroke-linejoin="miter" stroke-miterlimit="2" transform="matrix(1,0,0,1,8,8)"
>
</g>

<g fill="#f05c2c" fill-opacity="1" stroke="none" transform="matrix(1,0,0,1,8,8)"
>
<path vector-effect="none" fill-rule="nonzero" d="M103.742,59.9179 C106.044,59.8217 108.369,61.9774 108.384,64.3444 C108.398,66.7336 106.601,67.3663 104.732,67.5593 C102.53,67.7864 100.182,65.781 100.071,63.8423 C99.9534,61.7927 101.625,60.0063 103.742,59.9179 "/>
</g>

<g fill="#000000" fill-opacity="1" stroke="#000000" stroke-opacity="1" stroke-width="1" stroke-linecap="square" stroke-linejoin="miter" stroke-miterlimit="2" transform="matrix(1,0,0,1,8,8)"
>
</g>

<g fill="#f05c2c" fill-opacity="1" stroke="none" transform="matrix(1,0,0,1,8,8)"
>
<path vector-effect="none" fill-rule="nonzero" d="M100.379,48.498 C102.441,48.5546 104.061,50.6098 103.885,52.8751 C103.72,55.0066 102.499,56.1122 100.668,56.2512 C98.2636,56.1622 96.4569,53.9931 96.7012,51.6668 C96.9256,49.5321 98.2499,48.4393 100.379,48.498 "/>
</g>

<g fill="#000000" fill-opacity="1" stroke="#000000" stroke-opacity="1" stroke-width="1" stroke-linecap="square" stroke-linejoin="miter" stroke-miterlimit="2" transform="matrix(1,0,0,1,8,8)"
>
</g>

<g fill="#f05c2c" fill-opacity="1" stroke="none" transform="matrix(1,0,0,1,8,8)"
>
<path vector-effect="none" fill-rule="nonzero" d="M112.23,45.2346 C114.115,45.0098 115.83,46.9016 115.814,49.1657 C115.8,51.224 114.844,52.6596 112.647,52.8244 C110.704,52.9701 108.981,51.0818 108.934,48.6097 C109.249,47.0022 110.111,45.4872 112.23,45.2346 "/>
</g>

<g fill="#000000" fill-opacity="1" stroke="#000000" stroke-opacity="1" stroke-width="1" stroke-linecap="square" stroke-linejoin="miter" stroke-miterlimit="2" transform="matrix(1,0,0,1,8,8)"
>
</g>

<g fill="#f05c2c" fill-opacity="1" stroke="none" transform="matrix(1,0,0,1,8,8)"
>
<path vector-effect="none" fill-rule="nonzero" d="M97.2265,34.6672 C99.1388,34.5463 101.19,36.3725 100.985,38.124 C100.759,40.0445 99.4104,41.1309 97.5535,41.3744 C95.7345,41.6128 94.1711,39.9792 94.1301,37.6317 C94.1943,36.0071 95.1828,34.7964 97.2265,34.6672 "/>
</g>

<g fill="#000000" fill-opacity="1" stroke="#000000" stroke-opacity="1" stroke-width="1" stroke-linecap="square" stroke-linejoin="miter" stroke-miterlimit="2" transform="matrix(1,0,0,1,8,8)"
>
</g>

<g fill="#f05c2c" fill-opacity="1" stroke="none" transform="matrix(1,0,0,1,8,8)"
>
<path vector-effect="none" fill-rule="nonzero" d="M113.926,56.7328 C115.887,56.6791 116.96,57.8788 116.993,59.7851 C117.024,61.5938 115.964,62.7081 114.169,62.7957 C112.265,62.8886 111.13,61.8649 110.872,59.8493 C111.093,58.0807 111.982,56.7862 113.926,56.7328 "/>
</g>

<g fill="#000000" fill-opacity="1" stroke="#000000" stroke-opacity="1" stroke-width="1" stroke-linecap="square" stroke-linejoin="miter" stroke-miterlimit="2" transform="matrix(1,0,0,1,8,8)"
>
</g>

<g fill="#f05c2c" fill-opacity="1" stroke="none" transform="matrix(1,0,0,1,8,8)"
>
<path vector-effect="none" fill-rule="nonzero" d="M109.601,35.5745 C107.436,35.4923 107.08,33.8484 106.878,31.9981 C106.956,30.9581 107.3,29.71 108.695,29.9945 C110.345,30.3309 111.709,31.3879 111.754,33.3209 C111.786,34.687 111.049,35.6295 109.601,35.5745 "/>
</g>

<g fill="#000000" fill-opacity="1" stroke="#000000" stroke-opacity="1" stroke-width="1" stroke-linecap="square" stroke-linejoin="miter" stroke-miterlimit="2" transform="matrix(1,0,0,1,8,8)"
>
</g>

<g fill="#eb421b" fill-opacity="1" stroke="none" transform="matrix(1,0,0,1,8,8)"
>
<path vector-effect="none" fill-rule="nonzero" d="M131.625,180.953 C130.509,180.505 130.537,178.666 128.963,178.775 C127.272,181.903 126.609,185.401 125.391,188.7 C124.733,190.484 124.225,192.329 123.337,194.018 C122.891,194.866 122.405,196.168 121.252,195.72 C120.062,195.259 120.607,194.008 120.936,193.088 C121.453,191.639 121.98,190.192 122.508,188.745 C122.785,187.989 123.21,186.978 122.355,186.523 C121.35,185.989 120.749,186.992 120.257,187.721 C119.447,188.922 118.749,190.197 117.947,191.405 C117.651,191.853 117.275,192.434 116.69,192.249 C115.86,191.987 116.099,191.186 116.271,190.624 C117.171,187.676 118.282,184.793 119.706,182.064 C120.495,180.551 120.813,179.162 119.774,177.759 C118.409,175.917 117.681,173.805 116.94,171.688 C116.23,170.812 115.118,170.6 114.214,170.043 C112.543,170.13 110.969,172.403 109.139,170.141 C108.739,169.646 108.087,170.495 107.763,171.047 C105.857,174.294 105.857,174.292 102.335,173.072 C102.172,173.015 101.981,173.086 101.809,173.149 C100.642,174.035 101.286,175.318 101.09,176.304 C101,174.833 101.389,173.156 100.223,171.767 C98.7374,171.43 98.9209,172.641 98.8072,173.406 C98.5397,175.202 98.192,176.98 97.5638,178.676 C97.0312,180.115 96.1842,181.213 94.329,180.878 C92.7597,180.596 91.663,181.832 90.3209,182.296 C89.4672,183.614 90.5368,184.491 91.1074,185.43 C93.0383,188.607 95.4738,191.451 97.2975,194.704 C97.8665,195.718 98.4778,196.703 98.8629,198.166 C96.5412,196.972 95.5602,194.972 94.1433,193.391 C93.4635,192.632 93.0362,191.046 91.4422,192.148 C90.9293,194.318 90.8424,196.517 90.9807,198.731 C91.3336,200.231 92.4871,200.396 93.7483,200.382 C94.6714,200.255 95.3637,200.74 96.0444,201.254 C97.4015,201.392 97.6495,202.094 97.0451,203.227 C97.2477,204.177 95.7928,205.291 96.8201,205.906 C97.8961,206.551 98.7229,205.249 99.3908,204.502 C100.335,203.445 101.496,202.746 102.67,202.026 C103.026,199.434 103.332,196.833 103.916,194.277 C104.312,192.545 105.202,191.701 107.031,192.576 C107.195,192.654 107.35,192.752 107.518,192.815 C108.941,193.344 110.973,192.686 111.589,194.791 C112.251,197.049 111.255,199.061 110.407,201.036 C109.989,202.009 109.101,202.783 109.222,203.977 C109.196,205.821 110.627,205.522 111.75,205.684 C112.28,205.608 112.655,205.308 112.938,204.873 C113.41,204.003 113.626,203.035 113.992,202.123 C114.689,200.383 116.138,200.364 117.587,200.647 C119.174,200.957 118.972,202.284 118.863,203.446 C118.74,204.754 117.344,206.914 118.245,208.177 C118.919,208.719 120.425,208.231 121.299,207.817 C121.776,205.636 122.041,203.402 122.143,201.194 C122.276,198.347 124.5,197.371 126.245,195.944 C126.922,195.39 127.403,195.923 127.617,196.618 C127.904,197.546 127.923,198.602 128.921,199.17 C129.345,199.307 129.733,199.255 130.078,198.962 L130.072,198.977 C130.31,196.219 130.959,193.423 129.509,190.795 C128.791,189.494 130.031,189.562 130.575,189.131 C131.545,186.484 130.854,183.625 131.625,180.953 "/>
</g>

<g fill="#000000" fill-opacity="1" stroke="#000000" stroke-opacity="1" stroke-width="1" stroke-linecap="square" stroke-linejoin="miter" stroke-miterlimit="2" transform="matrix(1,0,0,1,8,8)"
>
</g>

<g fill="#eb421b" fill-opacity="1" stroke="none" transform="matrix(1,0,0,1,8,8)"
>
<path vector-effect="none" fill-rule="nonzero" d="M59.5497,146.603 C55.275,143.663 51.3166,140.339 47.5635,136.767 C45.1316,137.534 45.7067,139.306 46.13,141.026 C48.6287,141.969 49.2835,143.828 49.016,146.349 C48.8069,148.317 48.9737,150.31 48.6769,152.298 C48.3617,154.409 48.1236,156.314 45.8043,157.401 C44.4091,158.055 44.4471,159.686 44.8912,161.041 C45.425,162.67 46.7366,161.846 47.6459,161.605 C50.5088,160.844 53.0016,161.598 55.3744,163.131 C55.9054,163.474 56.3733,163.912 56.9697,164.158 C60.1619,165.475 60.1825,165.542 59.2726,168.861 C58.6503,171.131 57.9555,173.378 57.2001,175.606 C55.9028,178.985 55.4561,182.661 53.5445,185.834 C52.9214,186.868 52.8759,187.966 54.2576,188.533 C55.6095,189.088 56.3588,188.323 56.7298,187.164 C57.8359,183.708 58.4173,180.1 59.725,176.701 C60.3267,175.136 60.7382,172.747 62.9027,173.411 C65.3627,174.167 63.7892,176.299 63.3576,177.805 C62.1591,181.985 60.8324,186.128 59.8073,190.356 C59.9099,191.369 60.4212,192.01 61.4779,192.115 C62.5175,192.219 63.6184,192.034 63.8013,193.644 C63.8943,194.463 64.8429,194.121 65.4,193.991 C66.8196,193.661 68.2383,193.712 69.6637,193.835 C70.5148,193.731 71.2195,194.057 71.8518,194.593 C72.3823,194.891 72.9689,194.721 73.5304,194.795 C74.0353,194.687 74.4348,194.421 74.7404,194.008 C75.4,192.209 74.51,191.021 73.161,190.012 C71.8272,190.045 70.6479,189.912 70.3573,188.225 C70.2261,187.463 69.5229,187.182 68.8946,187.579 C67.4598,188.486 66.1132,187.041 64.6984,187.539 C64.2378,187.701 63.7326,187.311 63.7994,186.804 C64.0536,184.871 63.8522,182.427 65.7624,181.484 C67.9451,180.406 68.5206,178.566 69.3703,176.719 C69.7306,174.645 69.5442,172.512 70.0783,170.461 C70.1158,169.379 70.1694,168.297 70.367,167.224 C70.5002,166.5 70.609,165.458 69.9512,165.229 C68.1259,164.594 67.2471,162.97 65.8813,161.93 C64.7947,161.102 63.8538,160.453 63.1573,159.192 C62.3386,157.71 60.7047,158.607 59.7602,159.045 C57.7648,159.969 57.6182,158.913 57.5678,157.494 C57.4769,154.935 58.0389,152.467 58.6859,150.013 C58.9848,148.879 59.4852,147.796 59.5497,146.603 "/>
</g>

<g fill="#000000" fill-opacity="1" stroke="#000000" stroke-opacity="1" stroke-width="1" stroke-linecap="square" stroke-linejoin="miter" stroke-miterlimit="2" transform="matrix(1,0,0,1,8,8)"
>
</g>

<g fill="#eb421b" fill-opacity="1" stroke="none" transform="matrix(1,0,0,1,8,8)"
>
<path vector-effect="none" fill-rule="nonzero" d="M75.9824,152.501 C77.7917,154.709 76.9453,157.077 76.3118,159.376 C75.8868,160.919 75.5728,162.331 77.0434,163.488 C77.4907,165.825 79.1305,167.284 80.8711,168.67 C82.4446,168.232 82.8136,166.786 83.1215,165.553 C83.8135,162.782 86.3091,162.347 88.297,161.294 C89.0972,160.87 89.895,161.365 90.1146,162.344 C90.2696,163.036 90.0432,163.794 90.4543,164.448 C91.7106,165.131 92.385,163.103 93.6423,163.768 C94.6168,163.557 95.1777,162.875 95.6177,162.054 C96.0999,161.147 96.3574,159.723 97.674,161.487 C98.5296,162.633 99.8686,162.683 101.123,162.275 C101.962,162.002 102.884,161.546 102.171,160.333 C100.315,158.766 98.4731,157.181 96.5928,155.644 C96.1958,155.319 95.6449,154.941 95.1869,154.968 C88.6254,155.347 82.3183,153.822 75.9824,152.501 "/>
</g>

<g fill="#000000" fill-opacity="1" stroke="#000000" stroke-opacity="1" stroke-width="1" stroke-linecap="square" stroke-linejoin="miter" stroke-miterlimit="2" transform="matrix(1,0,0,1,8,8)"
>
</g>

<g fill="#e83715" fill-opacity="1" stroke="none" transform="matrix(1,0,0,1,8,8)"
>
<path vector-effect="none" fill-rule="nonzero" d="M39.4289,139.555 C37.9087,140.813 36.6216,142.28 35.5223,143.914 C34.4533,146.775 34.7582,149.755 34.8061,152.704 C34.8281,154.054 34.9058,155.567 36.4433,156.122 C37.9723,156.673 38.5928,155.197 39.5018,154.356 C40.2437,154.836 40.1047,155.841 40.7453,156.342 C42.192,156.762 42.0992,155.487 42.347,154.769 C42.8447,153.326 43.1553,151.821 43.4893,150.328 C43.669,150.644 43.5974,150.09 43.6211,150.161 C44.2622,152.074 44.9619,152.676 45.9325,150.353 C46.0007,150.189 45.9387,149.909 46.0404,149.836 C49.428,147.43 46.8207,144.897 46.2151,142.406 C45.9866,142.019 45.6407,141.701 45.5012,141.262 C45.0431,139.825 44.4624,138.379 42.6202,138.616 C40.7998,138.85 40.4529,140.372 40.3573,141.712 C40.2168,141.052 40.8937,139.906 39.4289,139.555 "/>
</g>

<g fill="#000000" fill-opacity="1" stroke="#000000" stroke-opacity="1" stroke-width="1" stroke-linecap="square" stroke-linejoin="miter" stroke-miterlimit="2" transform="matrix(1,0,0,1,8,8)"
>
</g>

<g fill="#f05929" fill-opacity="1" stroke="none" transform="matrix(1,0,0,1,8,8)"
>
<path vector-effect="none" fill-rule="nonzero" d="M40.9925,156.418 C40.9273,155.036 40.4254,153.794 39.8092,152.559 C39.6307,152.643 39.4466,152.669 39.3828,152.77 C38.6543,153.927 38.379,156.03 36.6866,155.614 C35.0243,155.206 35.5413,153.2 35.5201,151.804 C35.4799,149.174 35.5173,146.544 35.5224,143.914 C34.9596,145.405 33.8955,146.554 32.8953,147.747 C32.7487,152.295 31.9151,156.783 31.6783,161.323 C31.6798,164.199 31.6709,167.074 31.6859,169.949 C31.7024,173.029 31.2011,176.211 33.3745,178.888 C33.6665,178.466 33.9586,178.045 34.2508,177.624 C35.2406,172.682 34.1599,167.765 34.0695,162.836 C34.0544,162.023 34.0246,161.204 34.1817,160.399 C34.2883,159.853 34.463,159.293 35.1,159.196 C35.8691,159.078 36.2415,159.634 36.504,160.236 C36.987,161.344 36.8151,162.558 37.0301,163.705 C37.3679,165.508 37.171,167.615 39.3922,168.511 C40.1104,167.434 40.8282,166.356 41.5463,165.279 C41.5871,165.177 41.5925,165.073 41.5622,164.968 C40.6874,163.274 40.7101,161.527 41.1954,159.729 C41.4958,158.617 41.9412,157.466 40.9925,156.418 "/>
</g>

<g fill="#000000" fill-opacity="1" stroke="#000000" stroke-opacity="1" stroke-width="1" stroke-linecap="square" stroke-linejoin="miter" stroke-miterlimit="2" transform="matrix(1,0,0,1,8,8)"
>
</g>

<g fill="#e83615" fill-opacity="1" stroke="none" transform="matrix(1,0,0,1,8,8)"
>
<path vector-effect="none" fill-rule="nonzero" d="M39.3921,168.51 C38.1616,166.86 37.7008,164.967 37.7058,162.951 C37.7086,161.77 37.5727,160.643 37.1987,159.504 C36.8102,158.323 36.0559,157.987 34.9384,158.071 C33.6456,158.168 33.3422,159.001 33.3083,160.119 C33.1989,163.722 33.3185,167.319 33.9525,170.865 C34.1656,172.057 34.3191,172.999 33.5933,174.141 C32.8583,175.297 33.396,176.575 34.2506,177.624 C36.2837,174.765 38.0725,171.77 39.3921,168.51 "/>
</g>

<g fill="#000000" fill-opacity="1" stroke="#000000" stroke-opacity="1" stroke-width="1" stroke-linecap="square" stroke-linejoin="miter" stroke-miterlimit="2" transform="matrix(1,0,0,1,8,8)"
>
</g>

<g fill="#ee5c35" fill-opacity="1" stroke="none" transform="matrix(1,0,0,1,8,8)"
>
<path vector-effect="none" fill-rule="nonzero" d="M16.8458,173.981 C16.2021,171.822 17.0201,169.718 17.1674,167.597 C17.2347,166.631 17.4611,165.641 17.4927,164.646 C12.9341,169.716 8.37548,174.785 3.81686,179.854 C4.14346,180.262 4.49885,180.629 5.04213,180.738 C6.28846,180.951 6.75388,179.911 7.43046,179.232 C9.15579,177.5 10.9234,175.81 12.6038,174.035 C11.1854,175.602 9.5919,177.001 8.17117,178.562 C7.69708,179.083 6.45705,179.613 7.30864,180.446 C7.93324,181.057 9.08287,181.405 10.067,180.656 C11.0823,179.883 11.9362,178.939 12.8259,178.036 C14.1617,176.68 15.5895,175.415 16.8458,173.981 "/>
</g>

<g fill="#000000" fill-opacity="1" stroke="#000000" stroke-opacity="1" stroke-width="1" stroke-linecap="square" stroke-linejoin="miter" stroke-miterlimit="2" transform="matrix(1,0,0,1,8,8)"
>
</g>

<g fill="#f05929" fill-opacity="1" stroke="none" transform="matrix(1,0,0,1,8,8)"
>
<path vector-effect="none" fill-rule="nonzero" d="M102.186,173.321 C102.276,169.487 104.164,166.013 104.418,162.212 C103.669,161.586 102.92,160.96 102.171,160.333 C102.017,161.815 100.948,161.821 99.8094,161.887 C97.7233,162.008 97.7496,160.063 96.8091,158.796 C96.1362,159.889 95.2181,160.633 95.0806,161.861 C95.5834,162.511 96.2015,163.27 96.9298,163.366 C100.385,163.822 99.8809,166.272 99.7682,168.588 C99.7178,169.623 99.129,170.706 99.9841,171.681 C100.485,173.85 100.689,176.055 100.508,178.683 C102.584,177.004 100.76,174.701 102.186,173.321 "/>
</g>

<g fill="#000000" fill-opacity="1" stroke="#000000" stroke-opacity="1" stroke-width="1" stroke-linecap="square" stroke-linejoin="miter" stroke-miterlimit="2" transform="matrix(1,0,0,1,8,8)"
>
</g>

<g fill="#e52e11" fill-opacity="1" stroke="none" transform="matrix(1,0,0,1,8,8)"
>
<path vector-effect="none" fill-rule="nonzero" d="M31.6783,161.323 C33.2772,156.904 33.9288,152.4 32.8955,147.746 C31.5587,149.312 30.222,150.879 28.8854,152.445 C28.9081,154.614 28.7757,156.8 29.0102,158.947 C29.1572,160.293 29.1182,162.423 31.6783,161.323 "/>
</g>

<g fill="#000000" fill-opacity="1" stroke="#000000" stroke-opacity="1" stroke-width="1" stroke-linecap="square" stroke-linejoin="miter" stroke-miterlimit="2" transform="matrix(1,0,0,1,8,8)"
>
</g>

<g fill="#e3290f" fill-opacity="1" stroke="none" transform="matrix(1,0,0,1,8,8)"
>
<path vector-effect="none" fill-rule="nonzero" d="M21.8584,159.733 C21.9698,161.883 21.5043,164.065 22.1429,166.18 C22.3106,166.735 22.4882,167.573 23.2684,167.472 C23.6982,167.416 24.2089,166.894 24.4242,166.455 C26.0302,163.184 26.2862,159.809 25.0173,156.358 C23.7125,157.248 22.7582,158.465 21.8584,159.733 "/>
</g>

<g fill="#000000" fill-opacity="1" stroke="#000000" stroke-opacity="1" stroke-width="1" stroke-linecap="square" stroke-linejoin="miter" stroke-miterlimit="2" transform="matrix(1,0,0,1,8,8)"
>
</g>

<g fill="#ed5e3f" fill-opacity="1" stroke="none" transform="matrix(1,0,0,1,8,8)"
>
<path vector-effect="none" fill-rule="nonzero" d="M111.524,205.486 C109.818,206.928 107.653,207.971 107.166,210.474 C107.682,210.637 108.057,211.339 108.734,210.881 C109.909,210.687 110.464,209.66 111.291,208.997 C111.972,208.293 112.699,207.623 113.053,206.671 C113.056,206.034 113.89,205.187 112.608,204.865 C112.247,205.072 111.886,205.279 111.524,205.486 "/>
</g>

<g fill="#000000" fill-opacity="1" stroke="#000000" stroke-opacity="1" stroke-width="1" stroke-linecap="square" stroke-linejoin="miter" stroke-miterlimit="2" transform="matrix(1,0,0,1,8,8)"
>
</g>

<g fill="#e94b2e" fill-opacity="1" stroke="none" transform="matrix(1,0,0,1,8,8)"
>
<path vector-effect="none" fill-rule="nonzero" d="M103.146,202.674 C101.053,203.17 102.676,206.158 100.504,206.6 C100.316,207.074 100.21,206.541 99.8433,207.458 C100.727,206.841 101.137,207.506 101.631,207.162 C102.6,205.43 104.308,204.376 105.557,202.901 C104.901,201.258 104.005,202.164 103.146,202.674 "/>
</g>

<g fill="#000000" fill-opacity="1" stroke="#000000" stroke-opacity="1" stroke-width="1" stroke-linecap="square" stroke-linejoin="miter" stroke-miterlimit="2" transform="matrix(1,0,0,1,8,8)"
>
</g>

<g fill="#ef7257" fill-opacity="1" stroke="none" transform="matrix(1,0,0,1,8,8)"
>
<path vector-effect="none" fill-rule="nonzero" d="M114.236,210.349 C114.122,210.879 113.831,211.266 113.325,211.48 C113.029,212.045 112.841,212.593 113.556,213.006 C114.413,212.078 115.226,211.101 116.369,210.493 C117.705,209.996 118.577,209.074 118.949,207.693 C118.866,207.19 118.891,206.627 118.256,206.424 C116.463,206.981 115.565,208.667 114.136,209.685 C114.003,209.93 114.029,210.153 114.236,210.349 "/>
</g>

<g fill="#000000" fill-opacity="1" stroke="#000000" stroke-opacity="1" stroke-width="1" stroke-linecap="square" stroke-linejoin="miter" stroke-miterlimit="2" transform="matrix(1,0,0,1,8,8)"
>
</g>

<g fill="#e4290f" fill-opacity="1" stroke="none" transform="matrix(1,0,0,1,8,8)"
>
<path vector-effect="none" fill-rule="nonzero" d="M107.204,206.512 C107.385,206.451 109.681,204.3 109.862,204.238 C110.247,201.972 111.823,200.183 112.311,197.923 C112.767,195.805 112.916,193.489 110.797,192.767 C109.024,192.163 107.092,191.394 105.12,191.411 C104.155,191.419 103.475,192.22 103.344,193.193 C102.937,196.209 101.98,199.158 102.191,202.252 "/>
</g>

<g fill="#000000" fill-opacity="1" stroke="#000000" stroke-opacity="1" stroke-width="1" stroke-linecap="square" stroke-linejoin="miter" stroke-miterlimit="2" transform="matrix(1,0,0,1,8,8)"
>
</g>

<g fill="#e3280e" fill-opacity="1" stroke="none" transform="matrix(1,0,0,1,8,8)"
>
<path vector-effect="none" fill-rule="nonzero" d="M121.902,208.291 C122.563,209.04 123.232,208.931 123.908,208.313 C124.639,208.815 125.115,209.885 126.298,209.384 C126.459,209.332 126.619,209.275 126.778,209.215 C127.572,208.362 127.19,207.32 127.121,206.394 C126.918,203.691 128.388,201.438 128.961,198.951 C128.406,198.059 128.476,197.052 128.372,196.063 C128.237,194.773 126.775,194.086 126.305,194.767 C124.934,196.756 121.41,196.824 121.659,200.264 C121.836,202.699 120.118,205.099 121.333,207.622 C121.181,207.747 121.112,207.887 121.128,208.042 C121.144,208.205 121.173,208.286 121.214,208.287 C121.442,208.459 121.672,208.461 121.902,208.291 "/>
</g>

<g fill="#000000" fill-opacity="1" stroke="#000000" stroke-opacity="1" stroke-width="1" stroke-linecap="square" stroke-linejoin="miter" stroke-miterlimit="2" transform="matrix(1,0,0,1,8,8)"
>
</g>

<g fill="#e3280e" fill-opacity="1" stroke="none" transform="matrix(1,0,0,1,8,8)"
>
<path vector-effect="none" fill-rule="nonzero" d="M118.067,206.655 C118.619,206.903 118.562,207.386 118.535,207.857 C118.991,207.848 119.237,207.655 119.142,207.165 C118.836,205.592 119.652,204.153 119.685,202.614 C119.713,201.353 119.46,199.694 118.245,199.824 C116.776,199.981 114.692,198.739 113.729,201 C113.2,202.244 112.57,203.458 112.608,204.865 C113.295,205.423 112.527,205.959 112.583,206.507 C113.741,206.689 114.904,206.819 116.072,206.89 C116.736,206.818 117.421,206.889 118.067,206.655 "/>
</g>

<g fill="#000000" fill-opacity="1" stroke="#000000" stroke-opacity="1" stroke-width="1" stroke-linecap="square" stroke-linejoin="miter" stroke-miterlimit="2" transform="matrix(1,0,0,1,8,8)"
>
</g>

<g fill="#e42b10" fill-opacity="1" stroke="none" transform="matrix(1,0,0,1,8,8)"
>
<path vector-effect="none" fill-rule="nonzero" d="M41.4068,164.893 C41.6376,164.404 42.0434,164.292 42.5269,164.406 C44.4685,164.863 46.1713,165.985 48.1387,166.398 C48.8026,166.537 49.0013,167.235 49.2619,167.828 C50.5459,170.753 51.5904,171.024 54.053,169.12 C55.8971,167.694 56.4746,167.927 57.187,170.205 C57.785,172.117 57.1839,174.156 57.908,176.04 C56.2669,179.444 56.2378,183.467 53.8142,186.582 C53.3503,187.179 53.5649,187.79 54.3859,188.028 C55.0019,188.208 55.6498,188.469 55.9322,187.575 C56.094,187.064 56.1862,186.531 56.3323,186.014 C57.4548,182.038 58.215,177.954 59.9527,174.165 C60.6475,172.65 61.7851,171.791 63.4158,172.366 C65.1091,172.963 65.2831,174.382 64.7852,175.957 C63.221,180.906 61.6706,185.859 60.1147,190.811 C60.3159,191.397 60.0255,191.756 59.5478,192.029 C59.2919,192.063 59.0621,192.003 58.8578,191.845 C58.212,190.453 57.0146,190.494 55.769,190.649 C55.4015,190.71 55.0329,190.738 54.6606,190.698 C54.4177,190.658 54.1835,190.592 53.9592,190.49 C53.1454,190.032 52.4121,189.403 51.4299,189.307 C49.9681,189.302 48.6686,188.484 47.2101,188.448 C46.1667,187.966 44.8411,194.153 43.8126,193.86 C43.5169,193.693 43.3615,188.339 43.3636,188.176 C43.4189,183.673 42.4927,179.239 42.5229,174.721 C42.5438,171.583 42.6576,168.341 41.5462,165.278 C41.4995,165.15 41.4531,165.021 41.4068,164.893 "/>
</g>

<g fill="#000000" fill-opacity="1" stroke="#000000" stroke-opacity="1" stroke-width="1" stroke-linecap="square" stroke-linejoin="miter" stroke-miterlimit="2" transform="matrix(1,0,0,1,8,8)"
>
</g>

<g fill="#e42b10" fill-opacity="1" stroke="none" transform="matrix(1,0,0,1,8,8)"
>
<path vector-effect="none" fill-rule="nonzero" d="M62.576,158.972 C60.8933,159.797 58.8269,159.272 57.6057,161.513 C56.2872,155.893 56.8616,151.106 59.5498,146.603 C63.5275,148.491 67.3437,150.76 71.87,151.271 C73.2696,151.43 74.6133,152.078 75.9826,152.501 C78.0079,153.719 77.9305,155.592 77.4968,157.525 C77.0793,159.385 76.518,161.222 77.2076,163.135 C76.4037,164.3 75.2162,165.313 75.7084,166.974 C75.2102,169.75 74.5546,172.406 71.1568,173.006 C69.4124,172.793 70.2901,170.996 69.468,170.229 C69.3665,167.038 69.3668,167.038 67.0308,164.694 C66.5796,164.241 66.1579,163.78 66.1185,163.088 C66.0989,162.743 66.0629,162.202 65.6463,162.278 C62.9319,162.775 63.0292,160.586 62.576,158.972 "/>
</g>

<g fill="#000000" fill-opacity="1" stroke="#000000" stroke-opacity="1" stroke-width="1" stroke-linecap="square" stroke-linejoin="miter" stroke-miterlimit="2" transform="matrix(1,0,0,1,8,8)"
>
</g>

<g fill="#e42b10" fill-opacity="1" stroke="none" transform="matrix(1,0,0,1,8,8)"
>
<path vector-effect="none" fill-rule="nonzero" d="M110.975,167.176 C111.526,168.727 113.329,168.869 114.215,170.043 C112.454,171.302 110.851,174.264 108.724,170.267 C106.902,175.828 105.884,176.264 102.186,173.322 C101.152,169.263 102.88,165.756 104.418,162.212 C106.604,163.867 108.79,165.521 110.975,167.176 "/>
</g>

<g fill="#000000" fill-opacity="1" stroke="#000000" stroke-opacity="1" stroke-width="1" stroke-linecap="square" stroke-linejoin="miter" stroke-miterlimit="2" transform="matrix(1,0,0,1,8,8)"
>
</g>

<g fill="#e42b10" fill-opacity="1" stroke="none" transform="matrix(1,0,0,1,8,8)"
>
<path vector-effect="none" fill-rule="nonzero" d="M119.088,181.878 C120.33,179.859 119.773,178.264 118.626,177.125 C116.971,175.48 116.845,173.698 116.94,171.688 C120.948,174.05 124.956,176.412 128.964,178.774 C128.174,183.801 126.117,188.437 124.469,193.198 C124.089,194.297 123.62,195.321 122.753,196.214 C121.216,197.798 120.498,197.058 119.871,195.48 C119.495,194.535 119.896,193.738 120.232,192.885 C121.008,190.916 121.709,188.918 122.44,186.931 C120.409,188.052 119.719,190.03 118.645,191.726 C117.99,192.763 117.267,193.962 115.922,193.275 C114.761,192.682 115.196,191.322 115.559,190.352 C116.632,187.481 117.502,184.455 119.088,181.878 "/>
</g>

<g fill="#000000" fill-opacity="1" stroke="#000000" stroke-opacity="1" stroke-width="1" stroke-linecap="square" stroke-linejoin="miter" stroke-miterlimit="2" transform="matrix(1,0,0,1,8,8)"
>
</g>

<g fill="#e42b10" fill-opacity="1" stroke="none" transform="matrix(1,0,0,1,8,8)"
>
<path vector-effect="none" fill-rule="nonzero" d="M82.6531,164.845 C83.2874,161.716 86.3146,161.524 88.4,160.415 C89.4009,159.883 91.6283,160.547 90.7995,162.993 C90.6335,163.484 90.7383,164.065 90.7181,164.604 C91.625,165.58 91.1551,166.664 90.9149,167.696 C90.4389,169.744 89.856,171.769 89.4799,173.831 C90.0899,171.109 90.7221,168.396 91.6921,165.771 C92.0327,164.849 92.3239,163.843 93.4535,163.514 C94.1759,163.14 94.7327,162.603 95.0803,161.862 C96.7618,161.798 97.8644,163.561 99.7268,163.233 C100.356,163.123 100.537,164.26 100.554,165.009 C100.606,167.255 100.548,169.489 99.984,171.681 C99.4468,174.02 98.8611,176.349 98.3896,178.701 C98.07,180.294 96.5021,182.057 95.7977,181.759 C93.5105,180.791 92.0306,183.029 90.0681,182.619 C88.9337,182.738 88.4828,181.854 88.0415,181.115 C86.0106,177.715 83.6999,174.498 81.5914,171.15 C81.0842,170.345 80.4138,169.508 80.885,168.417 C81.884,167.429 82.3868,166.159 82.6531,164.845 "/>
</g>

<g fill="#000000" fill-opacity="1" stroke="#000000" stroke-opacity="1" stroke-width="1" stroke-linecap="square" stroke-linejoin="miter" stroke-miterlimit="2" transform="matrix(1,0,0,1,8,8)"
>
</g>

<g fill="#e42b10" fill-opacity="1" stroke="none" transform="matrix(1,0,0,1,8,8)"
>
<path vector-effect="none" fill-rule="nonzero" d="M112.493,177.866 C112.813,177.18 113.224,176.583 114.109,176.693 C114.715,176.769 115.175,177.192 115.205,177.742 C115.373,180.833 114.854,183.807 113.246,186.493 C112.843,187.168 112.112,187.749 111.17,187.263 C110.407,186.869 110.371,186.125 110.398,185.38 C110.934,182.83 111.378,180.255 112.493,177.866 "/>
</g>

<g fill="#000000" fill-opacity="1" stroke="#000000" stroke-opacity="1" stroke-width="1" stroke-linecap="square" stroke-linejoin="miter" stroke-miterlimit="2" transform="matrix(1,0,0,1,8,8)"
>
</g>

<g fill="#f05929" fill-opacity="1" stroke="none" transform="matrix(1,0,0,1,8,8)"
>
<path vector-effect="none" fill-rule="nonzero" d="M91.896,191.677 C91.5383,191.17 91.181,190.663 90.8235,190.156 C89.3733,189.881 88.5709,190.851 88.2518,191.922 C87.6818,193.835 86.9037,195.774 87.428,197.86 C87.4724,199.826 88.3952,197.858 88.9384,198.161 C89.7783,198.631 90.8254,198.731 91.7845,198.988 C91.8217,196.551 91.8588,194.114 91.896,191.677 "/>
</g>

<g fill="#000000" fill-opacity="1" stroke="#000000" stroke-opacity="1" stroke-width="1" stroke-linecap="square" stroke-linejoin="miter" stroke-miterlimit="2" transform="matrix(1,0,0,1,8,8)"
>
</g>

<g fill="#e3290e" fill-opacity="1" stroke="none" transform="matrix(1,0,0,1,8,8)"
>
<path vector-effect="none" fill-rule="nonzero" d="M46.4452,141.156 L45.8866,142.231 C45.9278,143.733 45.5579,145.33 47.2025,146.377 C47.6594,146.668 47.5671,147.804 47.2728,147.792 C44.6631,147.682 45.7187,150.143 44.9024,151.335 C43.7218,150.38 44.6591,149.111 43.8951,147.998 C41.994,150.56 42.4685,153.852 40.9924,156.417 C41.3053,158.642 39.919,160.612 40.0965,162.88 C40.1914,164.094 40.527,164.646 41.5611,164.968 C43.891,164.794 45.4364,167.101 47.8198,166.902 C48.6234,166.834 48.5772,167.749 48.6323,168.366 C48.7584,169.78 49.4705,170.762 50.8754,171.048 C52.2582,171.33 53.585,171.235 54.4497,169.84 C54.7619,169.336 54.946,168.519 55.7518,168.719 C56.5485,168.918 56.1575,169.806 56.4345,170.331 C56.9669,171.342 56.8111,172.44 56.8157,173.513 C56.8199,174.52 56.7642,175.532 57.9083,176.04 C58.7461,173.271 59.6227,170.514 60.411,167.732 C61.1874,164.993 60.5247,164.132 57.6517,163.611 C56.1933,163.347 54.8833,162.265 53.8644,161.497 C50.9315,159.286 48.3826,161.217 45.4956,161.227 C45.2249,159.507 44.8109,157.706 47.6853,157.299 C48.6307,157.165 48.9537,156.019 49.0981,155.132 C49.7393,151.188 49.7807,147.209 49.7306,143.222 C49.6995,140.755 47.9537,141.186 46.4452,141.156 "/>
</g>

<g fill="#000000" fill-opacity="1" stroke="#000000" stroke-opacity="1" stroke-width="1" stroke-linecap="square" stroke-linejoin="miter" stroke-miterlimit="2" transform="matrix(1,0,0,1,8,8)"
>
</g>

<g fill="#e83514" fill-opacity="1" stroke="none" transform="matrix(1,0,0,1,8,8)"
>
<path vector-effect="none" fill-rule="nonzero" d="M73.1792,190.233 C71.5135,185.938 69.7743,181.667 68.8376,177.132 C67.6267,178.598 66.6805,180.092 64.8449,181.22 C63.0566,182.319 63.0448,185.305 63.0094,187.638 C63.0042,187.982 63.7516,188.65 63.7703,188.637 C65.5608,187.36 67.6188,190.931 69.6135,188.059 C69.4074,191.321 70.6005,191.631 73.1792,190.233 "/>
</g>

<g fill="#000000" fill-opacity="1" stroke="#000000" stroke-opacity="1" stroke-width="1" stroke-linecap="square" stroke-linejoin="miter" stroke-miterlimit="2" transform="matrix(1,0,0,1,8,8)"
>
</g>

<g fill="#f8c3b4" fill-opacity="1" stroke="none" transform="matrix(1,0,0,1,8,8)"
>
<path vector-effect="none" fill-rule="nonzero" d="M72.126,194.666 C70.1156,196.738 68.1053,198.811 66.0951,200.882 C66.0735,201.907 66.3761,202.281 67.2319,201.415 C68.6599,199.969 70.0726,198.509 71.4911,197.056 C71.5705,195.833 72.6969,195.371 73.3257,194.545 C72.8646,193.975 72.5204,194.57 72.126,194.666 "/>
</g>

<g fill="#000000" fill-opacity="1" stroke="#000000" stroke-opacity="1" stroke-width="1" stroke-linecap="square" stroke-linejoin="miter" stroke-miterlimit="2" transform="matrix(1,0,0,1,8,8)"
>
</g>

<g fill="#eb421b" fill-opacity="1" stroke="none" transform="matrix(1,0,0,1,8,8)"
>
<path vector-effect="none" fill-rule="nonzero" d="M74.717,184.303 L75.5171,186.37 C76.071,186.401 76.3649,186.03 76.458,185.592 C77.3125,181.569 78.8586,177.744 79.8433,173.759 C78.5351,171.328 77.3309,168.832 75.4586,166.753 C74.4523,169.169 73.8378,171.872 70.9405,172.906 C71.0344,174.402 71.3653,175.834 72.0912,177.159 C72.6443,177.36 72.8872,176.964 73.148,176.608 C73.6104,175.978 73.9786,175.056 74.9982,175.575 C75.8475,176.008 75.7889,176.925 75.7212,177.716 C75.5314,179.932 74.7965,182.068 74.717,184.303 "/>
</g>

<g fill="#000000" fill-opacity="1" stroke="#000000" stroke-opacity="1" stroke-width="1" stroke-linecap="square" stroke-linejoin="miter" stroke-miterlimit="2" transform="matrix(1,0,0,1,8,8)"
>
</g>

<g fill="#ee5c35" fill-opacity="1" stroke="none" transform="matrix(1,0,0,1,8,8)"
>
<path vector-effect="none" fill-rule="nonzero" d="M16.7105,174.419 C14.601,176.516 12.4914,178.612 10.256,180.834 C13.717,180.554 14.2485,180.177 18.583,175.073 C18.4693,173.402 17.4745,174.239 16.7105,174.419 "/>
</g>

<g fill="#000000" fill-opacity="1" stroke="#000000" stroke-opacity="1" stroke-width="1" stroke-linecap="square" stroke-linejoin="miter" stroke-miterlimit="2" transform="matrix(1,0,0,1,8,8)"
>
</g>

<g fill="#f06b48" fill-opacity="1" stroke="none" transform="matrix(1,0,0,1,8,8)"
>
<path vector-effect="none" fill-rule="nonzero" d="M21.8187,176.126 C21.0402,178.461 18.541,179.41 17.468,181.508 C19.1743,182.51 20.1975,181.412 21.2394,180.307 C21.9689,179.534 22.7386,178.799 23.4902,178.048 C23.4864,176.93 23.0528,176.182 21.8187,176.126 "/>
</g>

<g fill="#000000" fill-opacity="1" stroke="#000000" stroke-opacity="1" stroke-width="1" stroke-linecap="square" stroke-linejoin="miter" stroke-miterlimit="2" transform="matrix(1,0,0,1,8,8)"
>
</g>

<g fill="#f05929" fill-opacity="1" stroke="none" transform="matrix(1,0,0,1,8,8)"
>
<path vector-effect="none" fill-rule="nonzero" d="M90.7182,164.604 C90.0509,167.909 89.3836,171.214 88.7161,174.518 C91.6583,171.382 91.2455,166.91 93.4536,163.514 C91.762,161.93 91.4512,163.794 90.7182,164.604 "/>
</g>

<g fill="#000000" fill-opacity="1" stroke="#000000" stroke-opacity="1" stroke-width="1" stroke-linecap="square" stroke-linejoin="miter" stroke-miterlimit="2" transform="matrix(1,0,0,1,8,8)"
>
</g>

<g fill="#f7b09c" fill-opacity="1" stroke="none" transform="matrix(1,0,0,1,8,8)"
>
<path vector-effect="none" fill-rule="nonzero" d="M71.0617,201.661 C70.1214,202.797 69.1727,202.635 68.2184,201.679 C66.4765,202.979 65.0226,204.558 63.571,206.301 C65.4279,207.3 66.961,207.601 68.388,205.696 C69.3538,204.407 70.6109,203.335 71.7378,202.166 C71.7254,201.714 71.5354,201.499 71.0617,201.661 "/>
</g>

<g fill="#000000" fill-opacity="1" stroke="#000000" stroke-opacity="1" stroke-width="1" stroke-linecap="square" stroke-linejoin="miter" stroke-miterlimit="2" transform="matrix(1,0,0,1,8,8)"
>
</g>

<g fill="#fbd9d0" fill-opacity="1" stroke="none" transform="matrix(1,0,0,1,8,8)"
>
<path vector-effect="none" fill-rule="nonzero" d="M71.0619,201.661 C71.2866,201.83 71.511,201.999 71.7369,202.167 C72.5599,201.368 73.3819,200.57 74.2033,199.773 C73.7889,199.666 74.9046,198.007 73.5428,199.023 C72.6012,199.726 71.5353,200.456 71.0619,201.661 "/>
</g>

<g fill="#000000" fill-opacity="1" stroke="#000000" stroke-opacity="1" stroke-width="1" stroke-linecap="square" stroke-linejoin="miter" stroke-miterlimit="2" transform="matrix(1,0,0,1,8,8)"
>
</g>

<g fill="#e93a17" fill-opacity="1" stroke="none" transform="matrix(1,0,0,1,8,8)"
>
<path vector-effect="none" fill-rule="nonzero" d="M79.8852,195.545 C80.1885,195.945 80.4917,196.344 80.795,196.744 C81.7666,197.408 82.8368,197.722 84.0152,197.659 C85.01,197.502 85.9179,198.286 86.9311,197.935 C87.0922,197.88 87.258,197.855 87.4284,197.86 C87.7872,196.578 88.4183,195.3 88.4405,194.012 C88.4726,192.137 89.3051,190.996 90.8237,190.156 C88.9542,187.454 87.0846,184.752 85.215,182.05 C84.7003,181.689 84.1348,181.407 83.6632,180.976 C81.6953,179.175 80.8945,179.281 80.2245,181.741 C79.2617,185.277 78.0207,188.803 78.596,192.581 C79.0257,193.569 79.4555,194.556 79.8852,195.545 "/>
</g>

<g fill="#000000" fill-opacity="1" stroke="#000000" stroke-opacity="1" stroke-width="1" stroke-linecap="square" stroke-linejoin="miter" stroke-miterlimit="2" transform="matrix(1,0,0,1,8,8)"
>
</g>

<g fill="#eb583b" fill-opacity="1" stroke="none" transform="matrix(1,0,0,1,8,8)"
>
<path vector-effect="none" fill-rule="nonzero" d="M126.298,209.384 C125.502,209.027 124.705,208.669 123.908,208.312 C124.066,208.93 123.746,209.392 123.297,209.685 C121.955,210.565 122.03,211.563 122.935,212.686 C124.409,211.943 125.979,211.298 126.298,209.384 "/>
</g>

<g fill="#000000" fill-opacity="1" stroke="#000000" stroke-opacity="1" stroke-width="1" stroke-linecap="square" stroke-linejoin="miter" stroke-miterlimit="2" transform="matrix(1,0,0,1,8,8)"
>
</g>

<g fill="#eb421b" fill-opacity="1" stroke="none" transform="matrix(1,0,0,1,8,8)"
>
<path vector-effect="none" fill-rule="nonzero" d="M109.319,204.421 C109.12,204.415 108.921,204.409 108.721,204.402 C107.511,205.56 105.955,206.423 105.467,208.197 C106.944,207.135 108.193,205.841 109.319,204.421 "/>
</g>

<g fill="#000000" fill-opacity="1" stroke="#000000" stroke-opacity="1" stroke-width="1" stroke-linecap="square" stroke-linejoin="miter" stroke-miterlimit="2" transform="matrix(1,0,0,1,8,8)"
>
</g>

<g fill="#ef6f52" fill-opacity="1" stroke="none" transform="matrix(1,0,0,1,8,8)"
>
<path vector-effect="none" fill-rule="nonzero" d="M121.339,208.214 C120.218,209.142 119.097,210.07 117.976,210.997 C118.152,211.526 119.588,211.597 118.547,212.567 C120.852,211.652 120.858,211.6 121.133,209.332 C121.178,208.96 121.635,208.637 121.902,208.291 C121.715,208.266 121.527,208.24 121.339,208.214 "/>
</g>

<g fill="#000000" fill-opacity="1" stroke="#000000" stroke-opacity="1" stroke-width="1" stroke-linecap="square" stroke-linejoin="miter" stroke-miterlimit="2" transform="matrix(1,0,0,1,8,8)"
>
</g>

<g fill="#e3280e" fill-opacity="1" stroke="none" transform="matrix(1,0,0,1,8,8)"
>
<path vector-effect="none" fill-rule="nonzero" d="M78.5959,192.581 C78.9991,190.457 79.2887,188.303 79.8381,186.218 C80.3787,184.165 80.5739,181.979 81.8808,179.627 C82.6067,181.402 83.5439,182.379 85.2148,182.051 C83.4242,179.287 81.6335,176.523 79.843,173.759 C77.3728,177.159 76.9026,181.239 75.9469,185.154 C75.8455,185.57 75.6621,185.966 75.5169,186.37 C76.3633,188.529 77.2968,190.645 78.5959,192.581 "/>
</g>

<g fill="#000000" fill-opacity="1" stroke="#000000" stroke-opacity="1" stroke-width="1" stroke-linecap="square" stroke-linejoin="miter" stroke-miterlimit="2" transform="matrix(1,0,0,1,8,8)"
>
</g>

<g fill="#e42a0f" fill-opacity="1" stroke="none" transform="matrix(1,0,0,1,8,8)"
>
<path vector-effect="none" fill-rule="nonzero" d="M74.7168,184.303 C76.1037,182.115 76.221,179.605 76.4716,177.148 C76.5881,176.008 76.6945,174.691 75.0131,174.45 C73.4112,174.22 72.6645,174.979 72.5753,176.544 C72.5632,176.757 72.2598,176.954 72.091,177.159 C72.5798,179.682 73.5058,182.044 74.7168,184.303 "/>
</g>

<g fill="#000000" fill-opacity="1" stroke="#000000" stroke-opacity="1" stroke-width="1" stroke-linecap="square" stroke-linejoin="miter" stroke-miterlimit="2" transform="matrix(1,0,0,1,8,8)"
>
</g>

<g fill="#f05929" fill-opacity="1" stroke="none" transform="matrix(1,0,0,1,8,8)"
>
<path vector-effect="none" fill-rule="nonzero" d="M80.7947,196.745 C81.9966,196.169 82.984,197.11 84.0905,197.21 C84.0905,197.21 84.0907,197.21 84.0907,197.209 C85.2968,196.441 86.0153,197.572 86.9307,197.935 C85.7743,199.176 84.618,200.417 83.4624,201.658 C82.6797,201.637 82.5746,200.749 81.972,200.498 C81.9986,200.334 82.0466,200.176 82.1161,200.025 C82.1383,199.343 81.8263,198.817 81.3435,198.37 C81.5411,197.7 80.2975,197.515 80.7947,196.745 "/>
</g>

<g fill="#000000" fill-opacity="1" stroke="#000000" stroke-opacity="1" stroke-width="1" stroke-linecap="square" stroke-linejoin="miter" stroke-miterlimit="2" transform="matrix(1,0,0,1,8,8)"
>
</g>

<g fill="#090706" fill-opacity="1" stroke="none" transform="matrix(1,0,0,1,8,8)"
>
<path vector-effect="none" fill-rule="nonzero" d="M70.8948,169.716 C70.9725,170.283 71.0542,170.849 71.1438,171.414 C71.1576,171.502 71.265,172.154 71.2155,171.864 C71.2796,172.24 71.3488,172.615 71.4198,172.99 C71.6413,174.161 71.8908,175.328 72.1674,176.487 C72.7059,178.745 73.3199,181.007 74.1443,183.179 C74.9669,185.346 76.2486,187.24 77.4767,189.191 C78.7728,191.251 80.0303,193.335 81.2483,195.442 C82.6338,197.837 83.9663,200.263 85.2503,202.714 C85.8807,203.918 85.8641,205.515 85.767,206.842 C85.7186,207.503 85.6845,208.229 85.4269,208.847 C85.3642,208.998 85.0662,209.585 84.8569,209.185 C82.488,204.663 79.1889,200.532 76.476,196.206 C75.1693,194.122 73.9679,192.388 73.0368,190.099 C72.0644,187.71 70.8066,184.979 70.1808,182.481 C69.4413,179.529 68.5534,177.004 68.1406,173.99 C67.9466,172.573 69.3202,169.861 69.8826,168.512 C70.4199,167.223 70.842,169.331 70.8948,169.716 "/>
</g>

<g fill="#000000" fill-opacity="1" stroke="#000000" stroke-opacity="1" stroke-width="1" stroke-linecap="square" stroke-linejoin="miter" stroke-miterlimit="2" transform="matrix(1,0,0,1,8,8)"
>
</g>

<g fill="#010000" fill-opacity="1" stroke="none" transform="matrix(1,0,0,1,8,8)"
>
<path vector-effect="none" fill-rule="nonzero" d="M90.0683,182.619 C86.7132,178.074 83.5986,173.375 80.8852,168.417 C79.6047,166.774 78.3241,165.131 77.0436,163.488 C74.1703,163.443 74.694,165.039 75.4586,166.753 C76.1851,169.491 78.1572,171.56 79.3756,174.035 C81.1011,176.826 82.9888,179.51 84.7785,182.259 C86.6274,184.898 88.3131,187.65 90.2655,190.219 C90.7328,190.789 91.1206,191.45 91.896,191.677 C94.3512,194.396 96.1015,197.81 99.8472,199.671 C99.6185,197.479 98.7969,195.748 97.7452,194.138 C95.2213,190.276 92.6315,186.456 90.0683,182.619 "/>
</g>

<g fill="#000000" fill-opacity="1" stroke="#000000" stroke-opacity="1" stroke-width="1" stroke-linecap="square" stroke-linejoin="miter" stroke-miterlimit="2" transform="matrix(1,0,0,1,8,8)"
>
</g>

<g fill="#eb421b" fill-opacity="1" stroke="none" transform="matrix(1,0,0,1,8,8)"
>
<path vector-effect="none" fill-rule="nonzero" d="M86.8168,197.807 C90.6856,196.341 96.0481,201.15 98.9924,201.319 C98.6569,201.768 96.7523,205.305 97.5545,205.93 C98.0761,205.362 102.116,200.052 103.598,202.588 C102.883,203.421 102.476,204.386 102.379,205.483 C103.766,203.274 110.045,202.538 108.903,204.806 C109.275,204.424 110.822,204.551 111.454,204.89 C112.072,205.222 112.257,205.646 112.147,206.109 C114.222,205.83 119.547,207.087 120.206,207.344 C120.023,207.514 119.825,207.696 119.613,207.887 C120.566,207.728 121.369,207.668 121.51,207.698 C121.527,209.418 119.577,210.949 119.406,211.887 C121.772,210.39 120.74,207.306 124.363,208.335 C124.184,209.737 126.608,207.69 125.936,208.934 C127.241,207.799 129.263,208.755 130.149,208.795 C130.221,215.124 129.778,216.637 123.675,215.909 C120.682,215.552 116.498,214.328 113.733,213.081 C113.847,212.44 114.073,211.906 114.409,211.476 C112.545,212.249 110.591,212.376 108.911,210.956 C109.325,210.221 109.992,208.814 110.696,207.858 C108.279,209.704 103.874,211.194 105.107,209.349 C102.026,209.349 100.665,209.31 102.114,205.983 C99.4511,209.624 96.9399,205.902 94.6595,205.596 C93.4554,205.772 90.599,205.423 89.6261,205.594 C87.2718,205.421 86.9457,207.227 84.7485,205.057 C81.8831,202.227 84.4553,199.697 86.8168,197.807 "/>
</g>

<g fill="#000000" fill-opacity="1" stroke="#000000" stroke-opacity="1" stroke-width="1" stroke-linecap="square" stroke-linejoin="miter" stroke-miterlimit="2" transform="matrix(1,0,0,1,8,8)"
>
</g>

<g fill="#eb421b" fill-opacity="1" stroke="none" transform="matrix(1,0,0,1,8,8)"
>
<path vector-effect="none" fill-rule="nonzero" d="M56.4421,208.051 C57.0016,207.866 56.3653,207.622 56.4421,208.051 M43.6902,192.9 C43.8207,183.679 56.0518,190.138 61.5578,191.507 C64.7728,192.307 68.8129,193.048 71.7424,193.864 C72.8327,194.168 73.7192,193.151 74.8041,193.518 C74.318,193.353 78.4465,196.674 77.7501,196.084 C77.846,196.824 78.268,198.765 78.6387,199.443 C79.311,200.672 80.766,201.633 81.3509,203.316 C82.9453,207.902 83.2345,206.162 78.3123,208.724 C73.5549,211.201 76.9009,211.09 69.6686,209.597 C64.9034,208.614 61.2374,210.953 56.7205,210.62 C54.9978,210.493 45.2697,207.68 44.3621,206.397 C43.1155,204.635 43.6575,195.215 43.6902,192.9 "/>
</g>

<g fill="#000000" fill-opacity="1" stroke="#000000" stroke-opacity="1" stroke-width="1" stroke-linecap="square" stroke-linejoin="miter" stroke-miterlimit="2" transform="matrix(1,0,0,1,8,8)"
>
</g>

<g fill="#f05c2c" fill-opacity="1" stroke="none" transform="matrix(1,0,0,1,8,8)"
>
<path vector-effect="none" fill-rule="nonzero" d="M39.429,139.555 C40.3954,140.506 39.4743,141.861 40.1395,142.893 C41.1621,142.661 40.8965,141.814 40.9712,141.154 C41.0971,140.041 41.674,139.158 42.7611,139.092 C44.0317,139.015 44.6649,139.951 44.7831,141.169 C44.8508,141.867 44.6385,142.783 45.8866,142.231 C46.371,142.027 46.721,141.753 46.4452,141.156 C46.4904,139.61 46.0845,137.949 47.5635,136.767 C46.0529,135.21 44.2907,135.545 42.7626,136.485 C41.4993,137.262 40.529,138.514 39.429,139.555 "/>
</g>

<g fill="#000000" fill-opacity="1" stroke="#000000" stroke-opacity="1" stroke-width="1" stroke-linecap="square" stroke-linejoin="miter" stroke-miterlimit="2" transform="matrix(1,0,0,1,8,8)"
>
</g>

<g fill="#eb421c" fill-opacity="1" stroke="none" transform="matrix(1,0,0,1,8,8)"
>
<path vector-effect="none" fill-rule="nonzero" d="M126.778,209.214 C126.903,209.483 127.028,209.752 127.153,210.021 C127.531,210.243 128.05,210.033 128.376,210.415 C129.247,210.168 129.47,209.312 129.972,208.719 C130.007,205.467 130.043,202.214 130.079,198.962 C129.706,198.958 129.334,198.954 128.961,198.95 C126.218,201.945 126.196,205.516 126.778,209.214 "/>
</g>

<g fill="#000000" fill-opacity="1" stroke="#000000" stroke-opacity="1" stroke-width="1" stroke-linecap="square" stroke-linejoin="miter" stroke-miterlimit="2" transform="matrix(1,0,0,1,8,8)"
>
</g>

<g fill="#eb421c" fill-opacity="1" stroke="none" transform="matrix(1,0,0,1,8,8)"
>
<path vector-effect="none" fill-rule="nonzero" d="M130.576,189.13 C129.765,188.719 128.886,188.22 128.203,189.22 C127.52,190.222 128.161,190.887 129.028,191.354 C130.352,192.068 130.024,193.314 130.049,194.434 C130.083,195.947 130.067,197.462 130.073,198.976 C131.059,195.736 130.384,192.411 130.576,189.13 "/>
</g>

<g fill="#000000" fill-opacity="1" stroke="#000000" stroke-opacity="1" stroke-width="1" stroke-linecap="square" stroke-linejoin="miter" stroke-miterlimit="2" transform="matrix(1,0,0,1,8,8)"
>
</g>

<g fill="#e83615" fill-opacity="1" stroke="none" transform="matrix(1,0,0,1,8,8)"
>
<path vector-effect="none" fill-rule="nonzero" d="M25.1583,189.809 C25.0141,189.894 24.8773,189.953 24.7462,189.992 C23.6223,189.175 22.3162,188.43 20.8579,187.775 C20.8593,187.689 20.8753,187.59 20.9092,187.475 C20.7429,187.522 20.5804,187.557 20.4209,187.583 C18.9769,186.964 17.3924,186.431 15.6969,185.997 C15.3289,185.782 14.9572,185.579 14.574,185.411 C14.574,185.411 14.574,185.411 14.5742,185.411 C14.4046,185.505 14.24,185.572 14.079,185.621 C13.4341,185.485 12.7758,185.364 12.1047,185.257 C11.8844,185.127 11.6676,184.98 11.4514,184.828 C11.2757,184.78 11.1,184.732 10.9243,184.684 C10.6829,184.814 10.4342,184.915 10.1801,184.996 C8.51594,184.808 6.78851,184.708 5.01608,184.708 C3.30854,184.708 1.64271,184.801 0.0348511,184.975 C0.433292,183.583 1.70937,182.931 2.72075,182.056 L2.72075,182.057 L2.72075,182.056 C1.88065,180.725 3.24714,180.486 3.81747,179.853 C4.22355,179.951 4.79983,179.641 4.95841,180.329 L4.95855,180.329 C6.29574,180.284 6.9952,179.26 7.79854,178.436 C9.64866,176.537 11.4603,174.601 13.2875,172.679 C13.5383,172.928 13.7891,173.177 14.0399,173.425 C11.7406,175.584 9.44137,177.743 7.16964,179.876 C9.33437,181.086 10.2537,179.689 11.509,178.643 C13.2186,177.218 14.1406,174.887 16.4034,174.109 C16.2696,173.912 16.1553,173.701 16.0725,173.479 C15.9198,170.437 15.9767,167.425 17.4932,164.646 C18.6802,162.771 20.2894,161.269 21.8583,159.732 C23.3866,161.624 21.8025,164.208 23.3249,166.304 C24.5893,165.059 24.8077,163.561 24.9044,162.046 C25.0253,160.153 24.8606,158.251 25.0174,156.357 C26.3067,155.053 27.5964,153.749 28.8858,152.444 C30.03,153.516 29.7288,154.94 29.6695,156.221 C29.5641,158.493 29.9179,160.462 32.0925,161.675 C33.127,167.366 31.728,173.24 33.375,178.887 C32.9773,179.56 32.5795,180.233 32.1816,180.906 C31.4697,182.177 30.3676,183.221 29.9786,184.68 C29.9786,184.68 29.9786,184.68 29.9784,184.68 C29.9784,184.68 29.9786,184.68 29.9786,184.68 C29.8696,185.251 29.5265,185.636 29.0132,185.884 C27.7282,187.193 26.4433,188.501 25.1583,189.809 "/>
</g>

<g fill="#000000" fill-opacity="1" stroke="#000000" stroke-opacity="1" stroke-width="1" stroke-linecap="square" stroke-linejoin="miter" stroke-miterlimit="2" transform="matrix(1,0,0,1,8,8)"
>
</g>

<g fill="#000000" fill-opacity="1" stroke="#000000" stroke-opacity="1" stroke-width="1" stroke-linecap="square" stroke-linejoin="miter" stroke-miterlimit="2" transform="matrix(1,0,0,1,8,8)"
>
</g>

<g fill="#000000" fill-opacity="1" stroke="#000000" stroke-opacity="1" stroke-width="1" stroke-linecap="square" stroke-linejoin="miter" stroke-miterlimit="2" transform="matrix(1,0,0,1,0,0)"
>
</g>

<g fill="#000000" fill-opacity="1" stroke="#000000" stroke-opacity="1" stroke-width="1" stroke-linecap="square" stroke-linejoin="miter" stroke-miterlimit="2" transform="matrix(1,0,0,1,0,0)"
>
</g>

<g fill="#000000" fill-opacity="1" stroke="#000000" stroke-opacity="1" stroke-width="1" stroke-linecap="square" stroke-linejoin="miter" stroke-miterlimit="2" transform="matrix(1,0,0,1,0,0)"
>
</g>

<g fill="#000000" fill-opacity="1" stroke="#000000" stroke-opacity="1" stroke-width="1" stroke-linecap="square" stroke-linejoin="miter" stroke-miterlimit="2" transform="matrix(1,0,0,1,0,0)"
>
</g>

<g fill="#000000" fill-opacity="1" stroke="#000000" stroke-opacity="1" stroke-width="1" stroke-linecap="square" stroke-linejoin="miter" stroke-miterlimit="2" transform="matrix(1,0,0,1,8,8)"
>
</g>

<g fill="#000000" fill-opacity="1" stroke="#000000" stroke-opacity="1" stroke-width="1" stroke-linecap="square" stroke-linejoin="miter" stroke-miterlimit="2" transform="matrix(1,0,0,1,0,0)"
>
</g>

<g fill="#000000" fill-opacity="1" stroke="#000000" stroke-opacity="1" stroke-width="1" stroke-linecap="square" stroke-linejoin="miter" stroke-miterlimit="2" transform="matrix(1,0,0,1,0,0)"
>
</g>

<g fill="#000000" fill-opacity="1" stroke="#000000" stroke-opacity="1" stroke-width="1" stroke-linecap="square" stroke-linejoin="miter" stroke-miterlimit="2" transform="matrix(1,0,0,1,0,0)"
>
</g>

<g fill="#000000" fill-opacity="1" stroke="#000000" stroke-opacity="1" stroke-width="1" stroke-linecap="square" stroke-linejoin="miter" stroke-miterlimit="2" transform="matrix(1,0,0,1,0,0)"
>
</g>

<g fill="#000000" fill-opacity="1" stroke="#000000" stroke-opacity="1" stroke-width="1" stroke-linecap="square" stroke-linejoin="miter" stroke-miterlimit="2" transform="matrix(1,0,0,1,0,0)"
>
</g>

<g fill="#000000" fill-opacity="1" stroke="#000000" stroke-opacity="1" stroke-width="1" stroke-linecap="square" stroke-linejoin="miter" stroke-miterlimit="2" transform="matrix(1,0,0,1,0,0)"
>
</g>
</g>
</svg>
